<svg xmlns="http://www.w3.org/2000/svg" width="64.909" height="57.328" viewBox="0 0 64.909 57.328">
  <g id="Group_87866" data-name="Group 87866" transform="translate(63.648 -511.151)">
    <g id="Group_80133" data-name="Group 80133" transform="translate(-63.148 511.657)">
      <g id="noun-authentication-4014851" transform="translate(29.036 0)">
        <path id="Union_154" data-name="Union 154" d="M6.368,27.336H2.531A2.54,2.54,0,0,1,0,24.8v-3.73a.959.959,0,0,1,1.86,0V24.8a.674.674,0,0,0,.671.681H6.368a.958.958,0,1,1,0,1.86Zm22.1.028a.959.959,0,0,1,0-1.859H32.3a.67.67,0,0,0,.671-.681v-3.73a.93.93,0,1,1,1.86-.028v3.758a2.539,2.539,0,0,1-2.531,2.54ZM17.431,24.393a10.712,10.712,0,1,1,.011,0Zm0-19.53a8.851,8.851,0,1,0,.011,0Zm-3.592,12.43a5.087,5.087,0,1,1,3.592,1.482h-.01A5.072,5.072,0,0,1,13.839,17.292Zm1.317-5.866a3.215,3.215,0,1,0,2.275-.946A3.23,3.23,0,0,0,15.156,11.426ZM0,6.309V2.57A2.542,2.542,0,0,1,2.559.029H6.4a.959.959,0,1,1,0,1.859H2.559a.67.67,0,0,0-.67.681V6.309a.96.96,0,0,1-.959.959A.958.958,0,0,1,0,6.309Zm33.012.03V2.6a.67.67,0,0,0-.672-.681H28.506V1.89a.959.959,0,1,1,0-1.861h3.835a2.544,2.544,0,0,1,2.533,2.54V6.338a.959.959,0,0,1-1.861,0Z" transform="translate(0 0)" fill="#313131" stroke="#313132" stroke-width="1"/>
      </g>
      <g id="noun-protein-2026654" transform="translate(0 13.952)">
        <path id="Path_85158" data-name="Path 85158" d="M179.856,26.236c-.015.008-.024.017-.039.025-.068.038-.133.076-.2.116l-.086.054c-.051.031-.1.063-.153.1l-.1.065-.138.093-.1.072-.128.094-.1.078-.122.1-.1.082-.117.1-.1.086-.113.1-.093.089-.108.108-.09.093-.1.112-.087.1-.1.117-.082.1c-.034.04-.066.081-.1.122l-.077.1c-.033.043-.065.087-.1.13l-.071.1c-.034.047-.066.095-.1.143-.02.03-.041.059-.062.089-.039.059-.077.119-.114.179l-.038.059q-.073.12-.143.242l-.042.077c-.031.057-.063.113-.093.171-.018.033-.034.067-.051.1-.026.051-.051.1-.076.153-.018.036-.034.073-.051.11s-.046.1-.067.148-.033.077-.049.115-.041.1-.06.147-.03.079-.046.119-.037.1-.055.148-.028.081-.042.122-.033.1-.049.149-.026.082-.038.124-.029.1-.043.15-.023.084-.034.126-.026.1-.038.152l-.03.127c-.011.051-.022.1-.033.155s-.017.084-.025.127-.019.106-.027.159-.014.083-.02.125-.015.11-.022.165-.011.081-.015.122c-.006.057-.011.115-.017.173,0,.039-.008.077-.01.116,0,.064-.008.128-.011.193,0,.033.015.065.014.1,0,.1.013.195.013.292V54.377a4.38,4.38,0,0,0,4.357,4.393h19.242a4.38,4.38,0,0,0,4.355-4.4V33.223a7.994,7.994,0,0,0-1.305-4.447,7.558,7.558,0,0,0-3-2.673V24.28a.913.913,0,0,0,.879-.879V18.156a1.783,1.783,0,0,0-1.785-1.758H181a1.783,1.783,0,0,0-1.785,1.758V23.4a.914.914,0,0,0,.879.879v1.827c-.088.041-.155.084-.237.128Zm17.818-1.926V25.8H181.851V24.31Zm-20.131,10.9h24.438V50.066H177.544Zm21.839,21.8H180.146a2.618,2.618,0,0,1-2.6-2.637V51.824h24.438v2.547a2.619,2.619,0,0,1-2.6,2.64Zm2.6-23.788v.229H177.544v-.229c0-.078-.018-.155-.014-.232,0-.026-.006-.053-.005-.079,0-.051,0-.1,0-.152,0-.031,0-.062.006-.093s.007-.091.012-.137.008-.065.012-.1.01-.086.017-.129.011-.067.017-.1.014-.084.021-.125.014-.068.021-.1.016-.081.025-.122.016-.068.025-.1.019-.08.03-.119.019-.067.028-.1.022-.078.034-.117.021-.067.032-.1.024-.077.037-.114.024-.067.036-.1.027-.075.041-.112l.04-.1c.015-.036.03-.073.045-.109s.029-.066.044-.1l.048-.107.047-.1c.017-.035.034-.07.052-.1s.034-.064.051-.1.036-.068.056-.1l.054-.094c.019-.034.039-.067.059-.1l.057-.092c.02-.033.041-.065.062-.1l.061-.09.065-.094.064-.088.068-.092.067-.086.072-.089.07-.084.075-.086.073-.081.078-.084.076-.078.081-.08.079-.076.084-.077.082-.073.086-.074.084-.07.089-.07.087-.067.091-.067.09-.064.094-.064.093-.061.1-.061.094-.057.1-.057.1-.054.1-.053.1-.05.1-.049.1-.046.032-.014h17.167a6.15,6.15,0,0,1,3.644,5.667ZM181,18.156h17.555v4.4H181v-4.4Z" transform="translate(-175.758 -16.398)" fill="#313131" stroke="#313132" stroke-width="1"/>
        <path id="Path_85159" data-name="Path 85159" d="M243.058,283.2h-.046a2.278,2.278,0,0,0-2.308-2.11h-1.486a.877.877,0,0,0-.9.858v2.131h-5.978v-2.131a.877.877,0,0,0-.9-.858h-1.486a2.279,2.279,0,0,0-2.309,2.11h-.046a2.292,2.292,0,0,0-2.3,2.306v1.305a2.268,2.268,0,0,0,2.3,2.278h.078v.076a2.268,2.268,0,0,0,2.277,2.3h1.486a.877.877,0,0,0,.9-.858v-2.131h5.978V290.6a.876.876,0,0,0,.9.858H240.7a2.268,2.268,0,0,0,2.277-2.3v-.077h.078a2.268,2.268,0,0,0,2.3-2.278v-1.3a2.292,2.292,0,0,0-2.3-2.307Zm-15.451,4.132a.509.509,0,0,1-.538-.52V285.5a.532.532,0,0,1,.538-.548h.078v2.373Zm2.979,2.373h-.624a.51.51,0,0,1-.519-.539v-5.779a.509.509,0,0,1,.519-.539h.624Zm1.758-2.989v-.879h5.978v.879Zm8.879,2.45a.509.509,0,0,1-.519.539h-.624v-6.857h.624a.509.509,0,0,1,.519.539Zm2.373-2.355a.509.509,0,0,1-.538.52h-.078v-2.373h.078a.532.532,0,0,1,.538.548Z" transform="translate(-221.329 -259.813)" fill="#313131"/>
      </g>
    </g>
  </g>
</svg>
