<svg xmlns="http://www.w3.org/2000/svg" width="71.953" height="39.58" viewBox="0 0 71.953 39.58">
  <g id="Group_87865" data-name="Group 87865" transform="translate(16446.799 -5160.924)">
    <g id="noun-shipping-191968" transform="translate(-16432.727 5160.924)">
      <path id="Path_85091" data-name="Path 85091" d="M91.293,177.634h5.4a1.025,1.025,0,0,0,.484-.08,5.624,5.624,0,0,0,11.125.081h22.572a5.631,5.631,0,0,0,11.125,0h4.434a1.413,1.413,0,0,0,1.37-1.37V161.19c0-3.869-1.048-7.013-3.144-9.27A10.28,10.28,0,0,0,137,148.7H128.94v-4.514a1.413,1.413,0,0,0-1.37-1.37H91.294a1.413,1.413,0,0,0-1.37,1.37v32.083a1.413,1.413,0,0,0,1.37,1.37Zm45.144,1.935a2.9,2.9,0,1,1,2.9-2.9A2.89,2.89,0,0,1,136.437,179.569Zm-7.5-28.134H137c5,0,8.061,3.709,8.061,9.674v13.7h-3.305a5.759,5.759,0,0,0-5.321-3.789,5.6,5.6,0,0,0-5.321,3.789h-2.1V151.434Zm-26.119,28.134a2.9,2.9,0,1,1,2.9-2.9A2.943,2.943,0,0,1,102.821,179.569ZM92.663,145.55h33.455v29.263H108.625a1.024,1.024,0,0,0-.484.08,5.668,5.668,0,0,0-5.4-3.869,5.74,5.74,0,0,0-5.4,3.95,1.523,1.523,0,0,0-.645-.161H92.663Zm15.478,15.961h2.66a1.612,1.612,0,0,1,0,3.224h-4.836a1.29,1.29,0,1,0,0,2.58h2.177v1.532a1.29,1.29,0,0,0,2.58,0V167.4h.08a4.192,4.192,0,0,0,0-8.384h-2.66a1.612,1.612,0,0,1,0-3.224h4.676a1.29,1.29,0,1,0,0-2.58h-2.1v-1.532a1.29,1.29,0,1,0-2.58,0v1.532h-.08a4.164,4.164,0,0,0-4.192,4.192,4.217,4.217,0,0,0,4.273,4.111Z" transform="translate(-89.923 -142.81)" fill="#080a08"/>
    </g>
    <path id="Path_85092" data-name="Path 85092" d="M101.119,163.213h2.66a1.612,1.612,0,0,1,0,3.224H98.943a1.29,1.29,0,1,0,0,2.58h2.177v1.532a1.29,1.29,0,1,0,2.58,0V169.1h.08a4.192,4.192,0,0,0,0-8.384h-2.66a1.612,1.612,0,1,1,0-3.224H105.8a1.29,1.29,0,0,0,0-2.58h-2.1v-1.532a1.29,1.29,0,1,0-2.58,0v1.532h-.08a4.164,4.164,0,0,0-4.192,4.192,4.217,4.217,0,0,0,4.273,4.111Z" transform="translate(-16515.631 5016.413)" fill="#080a08"/>
    <path id="Path_85097" data-name="Path 85097" d="M80.076,153.333a1,1,0,0,1,.965-.965h9.312a.965.965,0,1,1,0,1.93H81.041A1,1,0,0,1,80.076,153.333Zm10.277,6.53H82.517a.965.965,0,1,1,0-1.93h7.835a.965.965,0,1,1,0,1.93ZM82.858,164.4a1,1,0,0,1,.965-.965H90.3a.965.965,0,0,1,0,1.93H83.823A.923.923,0,0,1,82.858,164.4Z" transform="translate(-16526.875 5019.967)" fill="#080a08"/>
  </g>
</svg>
