<svg xmlns="http://www.w3.org/2000/svg" width="48.872" height="53.388" viewBox="0 0 48.872 53.388">
  <g id="Group_87825" data-name="Group 87825" transform="translate(-668.289 -918.022)">
    <g id="noun-privacy-4763265" transform="translate(545.783 886.388)">
      <path id="Path_100730" data-name="Path 100730" d="M167.926,38.512a100.155,100.155,0,0,1-19.149-6.474,4.363,4.363,0,0,0-3.669,0,100.126,100.126,0,0,1-19.151,6.474,4.376,4.376,0,0,0-3.451,4.281V60.949A18.405,18.405,0,0,0,135.79,78.567a20.675,20.675,0,0,1,8.935,5.263l.466.466a2.487,2.487,0,0,0,3.509,0l.454-.456h0a20.71,20.71,0,0,1,8.94-5.263,18.4,18.4,0,0,0,13.284-17.617V42.793a4.376,4.376,0,0,0-3.451-4.281Zm-.306,22.437a14.622,14.622,0,0,1-10.562,14,24.524,24.524,0,0,0-10.116,5.777,24.535,24.535,0,0,0-10.116-5.765,14.622,14.622,0,0,1-10.562-14.013V42.792a.641.641,0,0,1,.517-.614,104.2,104.2,0,0,0,19.911-6.727.6.6,0,0,1,.521,0,104.217,104.217,0,0,0,19.9,6.727.642.642,0,0,1,.519.614Z" transform="translate(0 0)" fill="#313131"/>
      <path id="Path_100731" data-name="Path 100731" d="M278.476,216.769l-8.7,8.695-3.685-3.682a1.88,1.88,0,0,0-2.657,2.657l5.013,5.013a1.875,1.875,0,0,0,2.657,0l10.026-10.025h0a1.88,1.88,0,0,0-2.657-2.657Z" transform="translate(-125.343 -164.799)" fill="#313131"/>
    </g>
  </g>
</svg>
